<?xml version="1.0" encoding="UTF-8" standalone="no"?>
<svg
   width="99.998512"
   height="77.455406"
   viewBox="0 0 19.679707 15.245"
   version="1.1"
   id="svg1"
   xmlns="http://www.w3.org/2000/svg"
   xmlns:svg="http://www.w3.org/2000/svg">
  <defs
     id="defs1" />
  <path
     d="m 9.1038532,14.43 4.6419998,-0.82 0.043,-0.01 -2.387,-2.84 A 403.945,403.945 0 0 1 9.0148532,7.907 c 0,-0.014 2.4649998,-6.802 2.4789998,-6.826 0.004,-0.008 1.682,2.888 4.066,7.02 l 4.09,7.09 0.031,0.054 -7.587,-10e-4 -7.5869998,-10e-4 4.597,-0.812 z m -9.105,-0.864 c 0,-0.004 1.125,-1.957 2.5,-4.34 l 2.5,-4.333 2.913,-2.445 C 9.5138532,1.104 10.828853,0.002 10.834853,0 a 0.512,0.512 0 0 1 -0.047,0.118 l -3.1639998,6.785 -3.107,6.663 -2.259,0.003 c -1.242,0.002 -2.259,0 -2.259,-0.004 z"
     fill="#0089d6"
     id="path1" />
</svg>
