<?xml version="1.0" encoding="UTF-8" standalone="no"?>
<svg
   width="1024"
   height="998.7381"
   viewBox="0 0 1024 998.7381"
   fill="none"
   version="1.1"
   id="svg835"
   xmlns:xlink="http://www.w3.org/1999/xlink"
   xmlns="http://www.w3.org/2000/svg"
   xmlns:svg="http://www.w3.org/2000/svg"
   xmlns:rdf="http://www.w3.org/1999/02/22-rdf-syntax-ns#"
   xmlns:cc="http://creativecommons.org/ns#"
   xmlns:dc="http://purl.org/dc/elements/1.1/">
  <metadata
     id="metadata841">
    <rdf:RDF>
      <cc:Work
         rdf:about="">
        <dc:format>image/svg+xml</dc:format>
        <dc:type
           rdf:resource="http://purl.org/dc/dcmitype/StillImage" />
      </cc:Work>
    </rdf:RDF>
  </metadata>
  <defs
     id="defs839">
    <linearGradient
       id="linearGradient1">
      <stop
         style="stop-color:#580458;stop-opacity:1;"
         offset="0.50338984"
         id="stop1" />
      <stop
         style="stop-color:#411141;stop-opacity:0.84703195;"
         offset="1"
         id="stop2" />
    </linearGradient>
    <linearGradient
       xlink:href="#linearGradient1"
       id="linearGradient2"
       x1="7.9999986"
       y1="15.802642"
       x2="7.9999986"
       y2="-0.19735652"
       gradientUnits="userSpaceOnUse"
       spreadMethod="repeat"
       gradientTransform="scale(64)" />
  </defs>
  <path
     fill-rule="evenodd"
     clip-rule="evenodd"
     d="M 512,0 C 229.12,0 0,229.12 0,512 c 0,226.56 146.56,417.92 350.08,485.76 25.6,4.48 35.2,-10.88 35.2,-24.32 0,-12.16 -0.64,-52.48 -0.64,-95.36 C 256,901.76 222.72,846.72 212.48,817.92 206.72,803.2 181.76,757.76 160,745.6 c -17.92,-9.6 -43.52,-33.28 -0.64,-33.92 40.32,-0.64 69.12,37.12 78.72,52.48 46.08,77.44 119.68,55.68 149.12,42.24 4.48,-33.28 17.92,-55.68 32.64,-68.48 -113.92,-12.8 -232.96,-56.96 -232.96,-252.8 0,-55.68 19.84,-101.76 52.48,-137.6 -5.12,-12.8 -23.04,-65.28 5.12,-135.68 0,0 42.88,-13.44 140.8,52.48 40.96,-11.52 84.48,-17.28 128,-17.28 43.52,0 87.04,5.76 128,17.28 97.92,-66.56 140.8,-52.48 140.8,-52.48 28.16,70.4 10.24,122.88 5.12,135.68 32.64,35.84 52.48,81.28 52.48,137.6 0,196.48 -119.68,240 -233.6,252.8 18.56,16 34.56,46.72 34.56,94.72 0,68.48 -0.64,123.52 -0.64,140.8 0,13.44 9.6,29.44 35.2,24.32 C 877.44,929.92 1024,737.92 1024,512 1024,229.12 794.88,0 512,0 Z"
     fill="#1B1F23"
     id="path833"
     style="fill:url(#linearGradient2);fill-opacity:1;stroke-width:64" />
</svg>
