<?xml version="1.0" encoding="UTF-8" standalone="no"?>
<!-- Generator: Adobe Illustrator 15.0.1, SVG Export Plug-In . SVG Version: 6.00 Build 0)  -->

<svg
   version="1.1"
   id="Layer_1"
   x="0px"
   y="0px"
   width="363.69101"
   height="412.703"
   viewBox="0 0 363.69101 412.703"
   enable-background="new 0 0 512 512"
   xml:space="preserve"
   xmlns="http://www.w3.org/2000/svg"
   xmlns:svg="http://www.w3.org/2000/svg"><defs
   id="defs11" />

<g
   id="Guides_to_delete"
   transform="translate(-74.012001,-99.296998)">
	<g
   id="g11">
		<polygon
   fill="#e34e26"
   points="255.769,512 107.125,470.727 74.012,99.297 437.703,99.297 404.549,470.755 "
   id="polygon6" />
		<polygon
   fill="#ef662a"
   points="255.857,129.657 255.857,480.449 376.164,447.101 404.51,129.657 "
   id="polygon7" />
		<polygon
   fill="#ffffff"
   points="255.799,385.811 205.057,372.085 201.664,334.146 155.937,334.146 162.476,407.282 255.787,433.199 349.219,407.282 361.744,267.429 195.706,267.429 191.538,220.777 365.732,220.777 365.873,220.777 369.953,175.217 141.761,175.217 154.041,312.978 311.936,312.978 306.637,372.066 "
   id="polygon8" />
		<g
   id="g10">
			<polygon
   fill="#ebebeb"
   points="255.857,267.429 195.706,267.429 191.538,220.777 255.857,220.777 255.857,175.217 141.761,175.217 154.041,312.978 255.857,312.978 "
   id="polygon9" />
			<polygon
   fill="#ebebeb"
   points="155.937,334.146 162.476,407.282 255.787,433.199 255.857,433.179 255.857,385.791 255.799,385.811 205.057,372.085 201.664,334.146 "
   id="polygon10" />
		</g>
	</g>
</g>
</svg>
