<?xml version="1.0" encoding="UTF-8" standalone="no"?>
<svg
   width="256"
   height="256.77032"
   viewBox="0 0 256 256.77032"
   version="1.1"
   preserveAspectRatio="xMidYMid"
   id="svg10"
   xmlns="http://www.w3.org/2000/svg"
   xmlns:svg="http://www.w3.org/2000/svg">
  <defs
     id="defs10" />
  <title
     id="title1">JWT</title>
  <g
     id="g10">
    <polygon
       fill="#ffffff"
       points="128.12839,95.518556 147.38616,69.071214 147.12939,-1.0975284e-14 108.61384,-1.0975284e-14 108.87061,69.071214 "
       id="polygon1" />
    <polygon
       fill="#ffffff"
       points="128.12839,160.99499 108.87061,187.44233 108.87061,256.77031 147.38616,256.77031 147.38616,187.44233 "
       id="polygon2" />
    <polygon
       fill="#00f2e6"
       points="147.38616,154.8325 147.38616,187.44233 187.95587,243.41825 219.02507,220.82247 178.45537,164.84654 "
       id="polygon3" />
    <polygon
       fill="#00f2e6"
       points="108.87061,101.68104 108.87061,69.071214 68.044132,13.095286 36.974925,35.691073 77.544634,91.667001 "
       id="polygon4" />
    <polygon
       fill="#00b9f1"
       points="96.802407,118.11434 77.544634,91.667001 11.811434,70.355065 3.70594e-15,106.81645 65.7332,128.38515 "
       id="polygon5" />
    <polygon
       fill="#00b9f1"
       points="190.2668,128.38515 159.19759,138.3992 178.45537,164.84654 244.18857,186.15848 256,149.69709 "
       id="polygon6" />
    <polygon
       fill="#d63aff"
       points="159.19759,118.11434 190.2668,128.38515 256,106.81645 244.18857,70.355065 178.45537,91.667001 "
       id="polygon7" />
    <polygon
       fill="#d63aff"
       points="96.802407,138.3992 65.7332,128.38515 3.70594e-15,149.69709 11.811434,186.15848 77.544634,164.84654 "
       id="polygon8" />
    <polygon
       fill="#fb015b"
       points="108.87061,154.8325 77.544634,164.84654 36.974925,220.82247 68.044132,243.41825 108.87061,187.44233 "
       id="polygon9" />
    <polygon
       fill="#fb015b"
       points="147.38616,101.68104 178.45537,91.667001 219.02507,35.691073 187.95587,13.095286 147.38616,69.071214 "
       id="polygon10" />
  </g>
</svg>
