<?xml version="1.0" encoding="UTF-8" standalone="no"?>
<svg
   width="225.95703"
   height="201.03641"
   viewBox="0 0 225.95703 201.03641"
   version="1.1"
   preserveAspectRatio="xMidYMid"
   id="svg4"
   xmlns="http://www.w3.org/2000/svg"
   xmlns:svg="http://www.w3.org/2000/svg">
  <defs
     id="defs4" />
  <path
     id="path2"
     d="M 159.11328,6.6489362e-4 C 147.80583,-0.07944511 133.31319,7.0837839 118.71093,19.791681 c -1.87223,1.62931 -3.75029,3.354222 -5.62695,5.162109 -1.25044,-1.196141 -2.49893,-2.351385 -3.74414,-3.457031 C 88.935052,3.3792789 68.482334,-4.2555001 56.201171,2.8541809 44.424769,9.6714629 40.936273,29.91313 45.892578,55.242852 c 0.478617,2.44658 1.039215,4.944083 1.671875,7.484376 -2.89463,0.821693 -5.689459,1.697009 -8.363282,2.628906 C 15.278746,73.696545 -5.3799449e-7,86.76829 -5.3799449e-7,100.32684 c 0,14.00338 16.40129453799449,28.04983 41.31835953799449,36.5664 1.966353,0.67208 4.006676,1.30686 6.109375,1.91016 -0.682533,2.74743 -1.275112,5.44044 -1.773438,8.06641 -4.725844,24.89011 -1.036046,44.65348 10.708985,51.42773 12.131544,6.99586 32.492741,-0.19542 52.318359,-17.52539 1.56697,-1.36989 3.13943,-2.82298 4.71484,-4.3457 2.04197,1.96635 4.07953,3.82867 6.10742,5.57421 19.20342,16.52518 38.17013,23.19745 49.9043,16.4043 12.11948,-7.01597 16.05888,-28.24726 10.94531,-54.07812 -0.39053,-1.97279 -0.84507,-3.98785 -1.35547,-6.03907 1.42982,-0.42271 2.83249,-0.85881 4.20118,-1.3125 25.90366,-8.58253 42.75781,-22.45803 42.75781,-36.64843 0,-13.60762 -15.76957,-26.766828 -40.17383,-35.167972 -2.34402,-0.806812 -4.77451,-1.569068 -7.27539,-2.291016 0.41105,-1.677574 0.78957,-3.335189 1.125,-4.96289 C 185.13892,31.177597 181.53932,9.6464749 169.24609,2.5573059 166.29918,0.85791189 162.88243,0.02736689 159.11328,6.6489362e-4 Z M 159.58203,9.6451959 c 1.87996,0.08391 3.50986,0.5073151 4.8418,1.2753911 7.56658,4.363463 10.5079,21.960911 5.7539,45.037109 -0.30326,1.472453 -0.64479,2.972276 -1.01562,4.492188 -9.37447,-2.163029 -19.55306,-3.77357 -30.21094,-4.773438 -6.20876,-8.841552 -12.64345,-16.879034 -19.10156,-23.83789 1.73629,-1.670335 3.47062,-3.262606 5.19726,-4.765625 C 138.6007,15.27755 151.43554,9.2816049 159.58203,9.6451959 Z m -93.380859,0.212891 c 8.696047,-0.355818 22.413931,6.1450841 36.728519,18.8554691 1.12615,0.999868 2.25682,2.046185 3.39062,3.128906 -6.565098,7.049351 -13.051358,15.074886 -19.248048,23.820312 -10.626914,0.984987 -20.799593,2.568713 -30.152341,4.6875 -0.588015,-2.365335 -1.108304,-4.688912 -1.552734,-6.960937 -4.246423,-21.701882 -1.426889,-38.073575 5.669922,-42.181641 1.417376,-0.820562 3.157282,-1.2674971 5.164062,-1.3496091 z M 113.08593,38.742852 c 4.45235,4.823579 8.9113,10.207627 13.29688,16.050782 -4.41937,-0.208742 -8.89323,-0.316406 -13.4043,-0.316406 -4.46843,0 -8.90876,0.105425 -13.300778,0.310546 4.390008,-5.788857 8.886278,-11.165839 13.408198,-16.044922 z m -0.10742,25.386719 c 6.99546,0 13.89535,0.266895 20.61328,0.779297 3.73644,5.515362 7.38357,11.330916 10.88672,17.382813 3.54298,6.119869 6.79889,12.184339 9.74219,18.130859 -2.93445,6.04868 -6.18169,12.17201 -9.70898,18.28906 -3.53212,6.12429 -7.15852,11.97166 -10.83985,17.49024 -6.70507,0.47942 -13.63315,0.72656 -20.69336,0.72656 -7.03165,0 -13.870608,-0.21895 -20.457028,-0.64648 -3.82974,-5.59098 -7.53533,-11.45523 -11.04492,-17.51758 h 0.002 c -3.500342,-6.04587 -6.723414,-12.14233 -9.642578,-18.20508 2.91836,-6.07683 6.131096,-12.17984 9.611328,-18.214845 3.489487,-6.051092 7.162677,-11.885422 10.957027,-17.441406 6.71995,-0.507978 13.610141,-0.773438 20.574221,-0.773438 z m -32.966792,2.009766 c -2.372977,3.701442 -4.686334,7.499576 -6.925781,11.382812 -2.233414,3.87278 -4.361473,7.774214 -6.378906,11.683591 -2.810973,-6.666454 -5.215345,-13.220962 -7.179688,-19.550778 6.446856,-1.44269 13.320799,-2.621536 20.484375,-3.515625 z m 65.951172,0.01563 c 7.20943,0.911384 14.11684,2.121066 20.60351,3.601562 -1.94745,6.241333 -4.37519,12.767247 -7.23242,19.457036 -2.04961,-3.891285 -4.21711,-7.81425 -6.5,-11.757817 -2.23582,-3.86192 -4.5311,-7.633124 -6.87109,-11.300781 z m -95.80664,5.86914 c 2.827462,9.197499 6.53564,18.815088 11.011718,28.539053 -4.533995,9.86837 -8.295176,19.63612 -11.15039,28.94141 -1.922514,-0.55262 -3.783971,-1.13394 -5.576172,-1.74609 -11.017854,-3.7658 -20.118561,-8.6592 -26.355469,-14 -5.604248,-4.79945 -8.4335946,-9.5653 -8.4335946,-13.43164 0,-8.227795 12.2678796,-18.722458 32.7265636,-25.855467 2.482375,-0.865533 5.080596,-1.681075 7.777344,-2.447266 z m 125.76758,0.142579 c 2.31144,0.668857 4.55497,1.374669 6.71679,2.11914 20.90955,7.198165 33.66407,17.840569 33.66407,26.041014 0,8.73497 -13.77472,20.0754 -36.14063,27.48632 -1.23556,0.40904 -2.50306,0.80421 -3.79492,1.1875 -2.85964,-9.0531 -6.72033,-18.68096 -11.44336,-28.62695 4.50705,-9.709095 8.21844,-19.212636 10.99805,-28.207024 z m -16.49805,39.394524 c 3.02011,6.88365 5.56643,13.54587 7.58789,19.87891 -6.55143,1.49457 -13.62537,2.6973 -21.07813,3.5918 2.34563,-3.71713 4.66226,-7.55288 6.9375,-11.49805 2.30179,-3.99143 4.48624,-7.98927 6.55274,-11.97266 z m -92.708984,0.34766 c 2.022662,3.90656 4.159162,7.81018 6.40625,11.6914 2.288918,3.95403 4.661592,7.82842 7.095704,11.60547 -7.401276,-0.82571 -14.378972,-1.94478 -20.824219,-3.34765 1.995714,-6.44284 4.451767,-13.13918 7.322265,-19.94922 z m 102.943354,28.82812 c 0.46092,1.85937 0.86993,3.6819 1.22266,5.46485 2.26117,11.42206 2.58568,21.74931 1.08789,29.82226 -1.34576,7.25407 -4.05214,12.09035 -7.39844,14.02735 -7.12094,4.12174 -22.35042,-1.23666 -38.77343,-15.36914 -1.8827,-1.62006 -3.77924,-3.34888 -5.68164,-5.17969 6.36681,-6.96328 12.73104,-15.05846 18.9414,-24.04883 10.92334,-0.9693 21.24278,-2.55337 30.60156,-4.7168 z m -112.873041,0.43164 c 9.25622,2.0468 19.499739,3.5186 30.449223,4.40625 6.25219,8.79731 12.800748,16.88453 19.398428,23.96485 -1.44148,1.39161 -2.87883,2.71641 -4.30664,3.96484 -8.766738,7.66311 -17.550628,13.09943 -25.292964,15.83399 -6.957248,2.45703 -12.498139,2.52706 -15.847656,0.5957 -7.127378,-4.11088 -10.090532,-19.97767 -6.048829,-41.26367 0.462932,-2.43774 1.013365,-4.94236 1.648438,-7.50196 z m 69.832031,5.10938 c -4.40007,5.9791 -8.84344,11.44778 -13.26563,16.31641 -4.57502,-4.9362 -9.13893,-10.39817 -13.595698,-16.27149 4.326458,0.16973 8.737788,0.25781 13.220698,0.25781 4.60559,0 9.15932,-0.10324 13.64063,-0.30273 z"
     style="fill:#53c1de;fill-opacity:1" />
  <path
     d="m 112.97902,80.150341 c 11.14334,0 20.17714,9.033399 20.17714,20.177139 0,11.14334 -9.0338,20.17715 -20.17714,20.17715 -11.14334,0 -20.177138,-9.03381 -20.177138,-20.17715 0,-11.14374 9.033798,-20.177139 20.177138,-20.177139"
     fill="#53c1de"
     id="path4" />
</svg>
