<?xml version="1.0" encoding="UTF-8" standalone="no"?>
<svg
   height="2256.5764"
   viewBox="-33.641292 -38.25132 797.14413 787.12754"
   width="2272.3684"
   version="1.1"
   id="svg6"
   xmlns="http://www.w3.org/2000/svg"
   xmlns:svg="http://www.w3.org/2000/svg">
  <defs
     id="defs6" />
  <g
     fill="#415870"
     id="g3"
     transform="translate(-34.182976,-42.414439)">
    <path
       d="m 193.25,381.21 c 1.79,-8.04 3.92,-15.99 6.39,-23.85 2.47,-7.85 5.27,-15.59 8.39,-23.21 a 289.01,289.01 0 0 1 10.33,-22.41 c 3.76,-7.33 7.83,-14.48 12.2,-21.46 4.21,-6.7 8.66,-13.25 13.34,-19.63 a 321.44,321.44 0 0 1 14.76,-18.58 c 5.14,-6.01 10.51,-11.83 16.09,-17.45 a 315.86,315.86 0 0 1 17.33,-16.2 c -4.58,3.97 -9.04,8.07 -13.38,12.3 -4.33,4.23 -8.55,8.59 -12.64,13.06 -4.09,4.47 -8.04,9.06 -11.87,13.77 -3.82,4.7 -7.51,9.51 -11.05,14.42 2.51,-3.5 5.1,-6.94 7.79,-10.31 2.69,-3.37 5.46,-6.67 8.32,-9.9 2.85,-3.23 5.79,-6.38 8.81,-9.45 3.02,-3.08 6.12,-6.07 9.3,-8.99 3.21,-2.93 6.49,-5.79 9.85,-8.55 3.35,-2.77 6.78,-5.45 10.27,-8.04 3.49,-2.59 7.05,-5.09 10.67,-7.5 3.62,-2.41 7.3,-4.73 11.04,-6.95 -1.32,1.31 -2.66,2.6 -4.02,3.87 -1.36,1.27 -2.74,2.52 -4.13,3.75 -1.39,1.23 -2.8,2.44 -4.23,3.64 -1.42,1.19 -2.87,2.36 -4.33,3.52 -6.09,5.23 -11.29,10.46 -12.1,13.7 a 339.475,339.475 0 0 0 -23.06,22.94 c -7.32,8 -14.26,16.35 -20.79,25.02 a 347.53,347.53 0 0 0 -18.31,26.88 c -5.67,9.25 -10.9,18.76 -15.67,28.51 -4.79,9.78 -9.07,19.81 -12.84,30.03 -3.76,10.22 -7,20.63 -9.7,31.18 a 320.062,320.062 0 0 0 -9.62,64.52 c -0.93,-3.6 -1.61,-7.26 -2.03,-10.96 -0.42,-3.7 -0.58,-7.42 -0.47,-11.14 a 79.46,79.46 0 0 1 3.7,-21.93 c 3.69,-12.4 8.87,-22.91 11.66,-34.6 M 407.84,164.75 a 375.22,375.22 0 0 0 -24.05,8.5 c 1.93,-0.89 3.89,-1.74 5.86,-2.54 1.97,-0.8 3.96,-1.55 5.97,-2.26 2.01,-0.71 4.03,-1.37 6.07,-1.99 2.04,-0.62 4.09,-1.19 6.15,-1.71 m 101.31,568.74 c 8.89,-0.97 17.73,-2.33 26.14,-3.69 -2.14,0.51 -4.3,0.96 -6.46,1.37 -2.17,0.4 -4.34,0.76 -6.53,1.07 -2.18,0.3 -4.37,0.56 -6.56,0.77 -2.19,0.21 -4.39,0.37 -6.59,0.48 M 206.98,493.5 l 3.9,14.52 c 1.4,9.48 3.26,18.89 5.58,28.2 2.31,9.3 5.06,18.49 8.26,27.53 a 298.205,298.205 0 0 0 24.25,52.06 348.51,348.51 0 0 1 -8.3,-14.08 c -2.65,-4.76 -5.2,-9.58 -7.63,-14.46 -2.42,-4.88 -4.74,-9.81 -6.93,-14.8 -2.2,-4.98 -4.28,-10.02 -6.24,-15.11 -1.96,-5.09 -3.7,-10.26 -5.23,-15.5 -1.52,-5.24 -2.82,-10.54 -3.9,-15.88 -1.08,-5.35 -1.94,-10.74 -2.56,-16.16 -0.63,-5.42 -1.03,-10.87 -1.2,-16.32 m 6.09,-40.66 c 0.05,-9.22 0.7,-18.43 1.93,-27.56 1.23,-9.14 3.04,-18.19 5.43,-27.09 2.38,-8.91 5.34,-17.65 8.84,-26.18 3.5,-8.52 7.55,-16.82 12.12,-24.83 -4.35,8.11 -8.23,16.46 -11.62,25.01 -3.38,8.56 -6.27,17.3 -8.65,26.18 -2.39,8.89 -4.25,17.9 -5.6,27 -1.34,9.1 -2.16,18.27 -2.45,27.47 m 480.76,121.7 c -0.73,-0.26 -0.94,-1.07 -0.91,-2.04 0.07,-0.2 0.14,-0.42 0.19,-0.63 0.05,-0.22 0.1,-0.43 0.13,-0.65 0.03,-0.22 0.05,-0.44 0.05,-0.67 0.01,-0.22 0.01,-0.44 -0.01,-0.66 1.72,-2.54 3.4,-5.11 5.03,-7.72 1.62,-2.6 3.2,-5.24 4.73,-7.9 1.52,-2.66 3,-5.36 4.42,-8.07 1.43,-2.72 2.8,-5.47 4.12,-8.24 -0.07,0.77 -0.16,1.53 -0.27,2.29 -0.1,0.77 -0.22,1.53 -0.35,2.29 -0.13,0.76 -0.27,1.51 -0.43,2.27 -0.16,0.75 -0.33,1.5 -0.52,2.25 -0.62,1.13 -1.26,2.25 -1.93,3.35 a 90.468,90.468 0 0 1 -4.28,6.45 c -0.76,1.05 -1.54,2.08 -2.34,3.09 -0.79,1.12 -1.55,2.26 -2.27,3.42 -0.72,1.17 -1.39,2.36 -2.03,3.57 -0.63,1.22 -1.22,2.45 -1.77,3.71 -0.55,1.25 -1.05,2.53 -1.51,3.82 m -194.53,159.62 -0.94,0.4 c -3.06,0.21 -6.1,0.41 -9.1,0.52 l -1.1,-0.26 c 3.71,-0.26 7.4,-0.5 11.14,-0.66 M 685.1,587.54 c -0.32,-0.18 -0.64,-0.33 -0.98,-0.47 -0.33,-0.13 -0.68,-0.24 -1.03,-0.32 -0.35,-0.08 -0.71,-0.14 -1.07,-0.17 -0.36,-0.03 -0.72,-0.03 -1.08,-0.01 4.31,-5.23 8.42,-10.82 12.26,-16.5 l -0.09,0.61 c -0.03,0.2 -0.06,0.4 -0.08,0.6 -0.03,0.21 -0.05,0.41 -0.07,0.61 -0.02,0.21 -0.03,0.41 -0.04,0.61 -1.39,4.5 -6.46,9.79 -7.85,15.04 m -128,80 c -4.02,1.28 -6.93,4.99 -8.73,6.22 -11.24,0.76 -22.33,0.81 -35.14,0.71 -1.93,0.94 -6.09,1.28 -10.01,2.9 -2.41,-1.1 -4.94,-1.99 -7.61,-2.9 7.22,0.08 14.45,-0.18 21.64,-0.78 7.2,-0.6 14.37,-1.54 21.48,-2.81 7.11,-1.27 14.16,-2.87 21.12,-4.8 6.96,-1.93 13.82,-4.18 20.57,-6.75 -1.87,0.85 -3.76,1.67 -5.66,2.44 -1.91,0.78 -3.83,1.5 -5.77,2.19 -1.94,0.68 -3.9,1.33 -5.87,1.92 -1.96,0.6 -3.95,1.15 -5.94,1.66"
       id="path1" />
    <path
       d="m 427.87,208.45 c 21.36,-6.9 45.78,-9.02 69.54,-8.1 23.77,0.91 47.06,4.39 69.23,6.66 -24.1,-9.57 -55.03,-14.95 -81.05,-16.34 -26.01,-1.39 -46.74,-0.37 -52.15,-5.6 -5.41,-5.23 13.28,-10.46 39.21,-11.45 3.46,-0.1 6.92,-0.13 10.37,-0.09 3.46,0.04 6.91,0.15 10.37,0.32 3.45,0.17 6.9,0.41 10.34,0.72 3.44,0.3 6.88,0.68 10.31,1.11 13.88,1.68 27.08,4.29 37.78,6.33 -5.41,-2.43 -5.41,-2.43 -10.9,-4.7 5.51,2.27 10.9,4.62 16.23,4.34 a 199.793,199.793 0 0 0 -15.84,-6.27 c -1.79,-0.62 -3.58,-1.22 -5.39,-1.79 -7.68,-2.61 -14.9,-4.94 -18.06,-7.19 3.63,-0.76 7.26,-1.36 10.95,-1.96 -14.74,-6.49 -37.41,-10.46 -60.5,-11.11 -23.08,-0.66 -46.43,1.41 -63.53,1.67 10.62,-1.21 21.27,-2.03 31.95,-2.45 10.67,-0.43 21.36,-0.45 32.04,-0.08 10.67,0.37 21.33,1.14 31.95,2.3 10.62,1.17 21.19,2.73 31.7,4.67 11.26,2.14 22.42,4.84 33.42,8.08 11,3.23 21.83,7.02 32.46,11.32 10.62,4.31 21.03,9.15 31.18,14.48 a 346.218,346.218 0 0 1 29.6,17.49 c 9.97,6.58 19.56,13.73 28.71,21.41 9.15,7.68 17.85,15.87 26.07,24.55 8.21,8.67 15.92,17.81 23.09,27.37 7.16,9.56 13.78,19.52 19.81,29.83 5.99,10.28 11.36,20.91 16.08,31.83 4.72,10.92 8.77,22.11 12.14,33.52 3.38,11.41 6.06,23.01 8.04,34.74 1.98,11.73 3.26,23.57 3.82,35.45 1.77,25.29 0.76,50.68 -3.01,75.74 a 346.486,346.486 0 0 1 -19.44,73.27 c -9.14,23.63 -20.86,46.19 -34.93,67.26 -14.07,21.07 -30.42,40.54 -48.74,58.04 -2.75,2.29 -5.57,4.51 -8.44,6.65 -2.87,2.15 -5.79,4.22 -8.77,6.2 a 200.462,200.462 0 0 1 -18.48,10.97 c -3.89,2.09 -7.82,4.09 -11.8,6.01 -3.98,1.91 -8,3.73 -12.06,5.46 -4.07,1.73 -8.17,3.36 -12.31,4.9 -4.13,1.54 -8.3,2.99 -12.51,4.34 -52.7,21.13 -111.29,28.56 -168.91,23.35 -61.28,-7.84 -118.72,-35.48 -164.71,-76.64 -45.98,-41.17 -81.49,-96.08 -101.17,-158.56 -4.06,-12.42 -4.5,-28.3 -1.83,-32.98 1.3,-2.35 3.26,-1.98 5.9,2.62 2.64,4.6 6.04,13.6 11.48,28.03 4.7,11.84 10,23.43 15.86,34.74 5.85,11.3 12.27,22.31 19.23,32.98 a 385.597,385.597 0 0 0 22.42,30.89 c 7.99,9.92 16.46,19.44 25.39,28.51 -3.45,-0.75 -9.07,-5.88 -14.69,-11.95 -1.26,-1.45 -2.53,-2.89 -3.83,-4.31 a 223.539,223.539 0 0 0 -8,-8.31 c -1.37,-1.34 -2.76,-2.67 -4.17,-3.98 2.48,3.74 5.06,7.43 7.73,11.04 2.67,3.62 5.44,7.16 8.29,10.64 2.85,3.48 5.78,6.88 8.81,10.21 3.02,3.32 6.13,6.57 9.31,9.74 3.17,3.14 6.41,6.2 9.73,9.17 3.32,2.98 6.72,5.87 10.19,8.67 3.46,2.8 7,5.51 10.61,8.13 3.61,2.62 7.28,5.15 11.02,7.58 A 322.521,322.521 0 0 1 284.73,705.6 c -4.83,-4.01 -9.54,-8.15 -14.12,-12.43 -4.59,-4.28 -9.05,-8.7 -13.38,-13.24 5.63,5.93 11.49,11.65 17.55,17.14 6.05,5.49 12.31,10.76 18.76,15.79 6.45,5.03 13.08,9.82 19.88,14.36 a 323.9,323.9 0 0 0 20.88,12.86 300.298,300.298 0 0 0 46.45,21.28 c 8.02,2.88 16.16,5.43 24.4,7.62 8.24,2.19 16.57,4.03 24.97,5.52 12.26,2.35 23.4,7.08 36.39,10.25 3.72,0.98 7.5,1.71 11.31,2.17 3.82,0.46 7.66,0.66 11.5,0.59 3.85,-0.06 7.68,-0.39 11.48,-0.99 3.79,-0.59 7.55,-1.45 11.23,-2.56 -11.27,0.02 -22.54,-0.54 -33.75,-1.67 a 332.833,332.833 0 0 1 -33.4,-5.12 331.26,331.26 0 0 1 -32.7,-8.52 c -10.75,-3.4 -21.31,-7.35 -31.66,-11.83 -10.3,-4.47 -20.38,-9.42 -30.21,-14.85 -9.83,-5.42 -19.4,-11.32 -28.66,-17.66 A 353.28,353.28 0 0 1 294.8,704 c -8.62,-7.2 -16.89,-14.8 -24.79,-22.78 0.05,0 0.09,0.01 0.13,0.01 h 0.27 c 0.04,0 0.08,-0.01 0.13,-0.01 -6.8,-6.75 -13.27,-13.81 -19.4,-21.16 a 307.352,307.352 0 0 1 -17.33,-22.88 309.47,309.47 0 0 1 -15.13,-24.4 c -4.65,-8.37 -8.92,-16.95 -12.77,-25.71 5.23,10.75 11.61,21.24 16.36,30.68 -25.2,-50.21 -38.85,-104.35 -38.37,-159.08 0.83,9.7 2.05,19.36 3.65,28.97 1.61,9.6 3.6,19.14 5.96,28.58 2.37,9.45 5.12,18.8 8.23,28.02 3.12,9.23 6.6,18.32 10.44,27.27 a 325.702,325.702 0 0 0 28.2,52.16 c 5.48,8.24 11.33,16.23 17.53,23.94 a 323.94,323.94 0 0 0 19.63,22.26 305.357,305.357 0 0 0 70.54,54.35 c 8.67,4.85 17.57,9.27 26.67,13.25 A 280.5,280.5 0 0 0 430,755.01 c 9.48,1.97 19.06,3.44 28.69,4.41 9.64,0.98 19.31,1.45 29,1.43 -21.13,-3.69 -45.42,-6.2 -68.71,-11.88 -23.29,-5.67 -45.2,-14.35 -59.53,-26.3 a 309.051,309.051 0 0 0 47.76,19.79 307.58,307.58 0 0 0 50.39,11.55 c 17.09,2.44 34.36,3.43 51.62,2.98 17.25,-0.46 34.44,-2.36 51.38,-5.69 l -14.87,4.47 c 5.62,-0.44 11.22,-1.12 16.79,-2.04 a 202.8,202.8 0 0 0 16.57,-3.42 c 5.47,-1.38 10.89,-2.98 16.23,-4.8 5.33,-1.83 10.6,-3.87 15.76,-6.13 5.19,-2.27 10.32,-4.66 15.39,-7.16 5.07,-2.51 10.08,-5.14 15.02,-7.89 4.95,-2.75 9.82,-5.61 14.63,-8.6 4.81,-2.98 9.55,-6.07 14.21,-9.28 3.29,-2.17 6.56,-4.37 9.8,-6.69 l -9.8,6.69 c -8.32,5.45 -16.9,10.49 -25.7,15.11 -8.81,4.62 -17.83,8.81 -27.04,12.56 -9.21,3.75 -18.59,7.05 -28.12,9.89 -9.53,2.85 -19.19,5.23 -28.95,7.13 17.1,-5.23 35.09,-10.85 56.13,-19.19 -12.21,2.61 -28.94,7.58 -46.04,10.85 -5.49,1.41 -11.04,2.66 -16.61,3.74 -5.57,1.08 -11.18,1.99 -16.81,2.74 -5.62,0.74 -11.27,1.32 -16.94,1.73 -5.66,0.4 -11.33,0.64 -17.01,0.71 8.35,-0.31 16.67,-1.06 24.93,-2.26 a 234.506,234.506 0 0 0 48.44,-12.41 c 7.82,-2.93 15.48,-6.27 22.95,-10.02 -44.03,14.26 -92.19,20.24 -137.76,13.08 6.26,0.63 12.53,1.05 18.82,1.26 6.28,0.21 12.57,0.2 18.85,-0.02 6.29,-0.22 12.56,-0.65 18.82,-1.29 6.25,-0.64 12.48,-1.5 18.68,-2.57 10.6,-1.24 21.13,-3.09 31.53,-5.55 a 278.416,278.416 0 0 0 60.11,-21.74 c 9.56,-4.77 18.83,-10.08 27.78,-15.91 l -4,2.96 c 2.77,-1.81 5.44,-3.77 8.11,-5.68 3.52,-2.4 6.99,-4.89 10.4,-7.46 3.41,-2.56 6.76,-5.21 10.05,-7.93 3.28,-2.73 6.51,-5.53 9.66,-8.4 3.15,-2.88 6.24,-5.83 9.26,-8.85 a 163.507,163.507 0 0 0 20.59,-27.19 c 1.97,-3.25 3.82,-6.56 5.55,-9.94 l 4.21,-6.22 c -1.67,4.6 -1.98,7.29 3.74,0 3.12,-4.11 6.07,-8.35 8.84,-12.7 2.77,-4.35 5.36,-8.81 7.77,-13.38 2.41,-4.56 4.63,-9.22 6.66,-13.96 2.02,-4.74 3.86,-9.57 5.49,-14.46 7.27,-20.19 12.6,-41.51 18.3,-63.79 2.95,-11.74 3.66,-28.14 2.2,-45.55 0.19,-0.78 0.32,-1.58 0.37,-2.38 0.06,-0.8 0.05,-1.61 -0.03,-2.41 -0.08,-0.8 -0.23,-1.59 -0.44,-2.37 -0.22,-0.77 -0.5,-1.53 -0.85,-2.26 -0.41,-3.74 -0.94,-7.5 -1.51,-11.24 -0.22,-2.29 -0.49,-4.57 -0.81,-6.85 -0.32,-2.28 -0.68,-4.55 -1.1,-6.81 -0.42,-2.26 -0.89,-4.51 -1.41,-6.75 -0.52,-2.24 -1.08,-4.47 -1.7,-6.68 1.8,8.78 3.61,17.88 5.02,27.09 l 1.04,10.3 c -0.43,-0.74 -0.82,-1.5 -1.17,-2.29 -0.35,-0.78 -0.66,-1.58 -0.92,-2.4 -0.26,-0.82 -0.48,-1.65 -0.65,-2.49 -0.17,-0.84 -0.29,-1.69 -0.37,-2.55 0.63,7.99 0.92,15.99 0.87,24 -0.05,8 -0.44,16.01 -1.16,23.98 -0.72,7.97 -1.79,15.91 -3.18,23.8 -1.4,7.88 -3.12,15.7 -5.18,23.44 -2.1,7.87 -4.51,15.65 -7.24,23.32 -2.72,7.68 -5.76,15.24 -9.09,22.67 -3.33,7.43 -6.96,14.72 -10.88,21.86 -3.92,7.13 -8.13,14.11 -12.61,20.91 1.31,-3.82 3.45,-9.02 4.05,-11.33 -2.48,5.97 -5.22,11.77 -8.26,17.55 -3.02,4.36 -6.15,8.64 -9.39,12.84 -3.24,4.2 -6.59,8.32 -10.03,12.35 -3.45,4.03 -7,7.98 -10.64,11.83 -3.64,3.86 -7.39,7.62 -11.22,11.28 1,-1.08 1.96,-2.19 2.89,-3.32 a 75.302,75.302 0 0 0 5.17,-7.13 c 0.79,-1.23 1.55,-2.49 2.27,-3.77 a 302.136,302.136 0 0 1 -16.57,15.23 304.47,304.47 0 0 1 -17.66,13.94 c -6.06,4.42 -12.29,8.61 -18.66,12.57 a 299.38,299.38 0 0 1 -19.56,11.14 c -6.7,3.48 -13.54,6.7 -20.5,9.65 -6.95,2.95 -14.02,5.63 -21.18,8.04 -7.16,2.41 -14.42,4.54 -21.74,6.38 -7.33,1.85 -14.72,3.41 -22.17,4.69 -13.91,1.62 -27.91,2.2 -41.9,1.74 -13.99,-0.46 -27.93,-1.95 -41.7,-4.48 a 282.782,282.782 0 0 1 -40.58,-10.59 283.045,283.045 0 0 1 -38.57,-16.48 c 6.63,4.2 13.47,8.04 20.49,11.52 7.03,3.48 14.24,6.58 21.59,9.3 7.36,2.71 14.85,5.04 22.45,6.97 7.6,1.92 15.3,3.44 23.06,4.56 a 272.251,272.251 0 0 1 -32,-5.14 271.42,271.42 0 0 1 -31.17,-8.88 271.465,271.465 0 0 1 -29.9,-12.5 272.663,272.663 0 0 1 -28.21,-15.95 260.523,260.523 0 0 1 -26.03,-19.12 c -8.27,-6.91 -16.1,-14.32 -23.45,-22.2 -7.35,-7.88 -14.2,-16.21 -20.52,-24.94 -6.32,-8.73 -12.09,-17.84 -17.27,-27.28 11.61,11.06 26.69,25.78 37.17,28.92 1.47,-2.15 -13.51,-23.25 -3,-12.32 19.84,19.01 37.23,34.13 53.17,44.64 15.95,10.51 30.43,15.9 43.3,13.6 2.61,-1.02 -7.01,-11.32 -13.7,-21.23 -6.69,-9.92 -11.01,-18.89 -3.3,-15.22 4.76,2.75 9.6,5.37 14.52,7.84 4.91,2.46 9.9,4.78 14.95,6.95 a 275.763,275.763 0 0 0 31.03,11.15 c 1.87,0.72 3.75,1.41 5.65,2.06 1.89,0.65 3.8,1.26 5.72,1.84 1.92,0.57 3.85,1.11 5.79,1.61 1.94,0.5 3.89,0.97 5.85,1.39 0.96,0.52 2.85,0 5.23,-0.6 28.49,4.81 55.92,2.96 71.06,1.6 5.64,-0.4 11.24,-1.16 16.81,-2.02 0.68,0.03 1.37,0.08 2.06,0.16 0.68,0.08 1.36,0.19 2.04,0.32 0.67,0.13 1.34,0.29 2.01,0.48 0.66,0.19 1.32,0.4 1.96,0.64 3.22,-1.96 6.46,-3.74 9.7,-5.23 3.65,-0.93 7.27,-1.96 10.86,-3.08 3.59,-1.13 7.15,-2.35 10.68,-3.67 3.52,-1.33 7.01,-2.74 10.45,-4.26 3.45,-1.51 6.85,-3.12 10.21,-4.81 2,-0.69 3.99,-1.4 5.96,-2.15 1.98,-0.75 3.94,-1.53 5.89,-2.35 1.95,-0.81 3.89,-1.66 5.81,-2.54 1.92,-0.88 3.82,-1.8 5.71,-2.75 -0.73,-0.73 -2.61,-1.04 -1.85,-2.77 3.89,-2.59 7.7,-5.32 11.41,-8.17 3.71,-2.85 7.33,-5.81 10.85,-8.9 3.52,-3.09 6.93,-6.29 10.24,-9.6 3.31,-3.31 6.51,-6.73 9.59,-10.25 1.38,-1.19 2.78,-2.35 4.2,-3.49 1.42,-1.14 2.86,-2.26 4.32,-3.35 1.46,-1.09 2.94,-2.15 4.43,-3.19 1.5,-1.04 3.01,-2.06 4.54,-3.05 2.4,-11.03 10.69,-25.57 18.3,-42.44 7.61,-16.87 14.25,-35.78 16.36,-52.07 h -0.34 c 0.76,-4.09 1.4,-8.2 1.93,-12.33 0.53,-4.13 0.95,-8.27 1.26,-12.41 0.31,-4.15 0.5,-8.31 0.59,-12.47 0.08,-4.16 0.05,-8.32 -0.09,-12.48 0.73,-2.8 1.57,-5.52 2.61,-8.1 -1.8,-4.06 -2.37,-8.42 -3.39,-10.46 -0.58,-13.5 -1.23,-25.11 -2.62,-36.85 -1.33,-1.83 -5.23,-4.79 -6.74,-8.95 -0.64,-2.06 -1.32,-4.1 -2.04,-6.13 -0.73,-2.03 -1.49,-4.05 -2.3,-6.05 -0.81,-2 -1.67,-3.98 -2.56,-5.94 -0.89,-1.96 -1.83,-3.91 -2.8,-5.83 -1,-2.28 -2.04,-4.55 -3.1,-6.8 a 277.19,277.19 0 0 0 -3.3,-6.7 c -1.13,-2.21 -2.29,-4.42 -3.49,-6.6 -1.19,-2.18 -2.42,-4.35 -3.68,-6.5 A 250.17,250.17 0 0 0 675.27,311.88 247.999,247.999 0 0 0 659.21,292.1 c -5.69,-6.32 -11.7,-12.34 -18,-18.04 -6.3,-5.7 -12.89,-11.08 -19.75,-16.1 a 7.81,7.81 0 0 1 0.05,-2.16 c 0.06,-0.36 0.15,-0.71 0.26,-1.05 0.11,-0.34 0.24,-0.68 0.4,-1 -5.49,-1.29 -11.29,-6.25 -16.05,-7.54 1.02,0 1.8,-0.23 2.01,-0.96 -1.36,-0.44 -2.71,-0.93 -4.05,-1.45 -1.33,-0.52 -2.65,-1.09 -3.94,-1.7 -1.3,-0.61 -2.58,-1.25 -3.84,-1.94 -1.25,-0.69 -2.49,-1.42 -3.7,-2.18 -1.1,-0.79 -2.21,-1.55 -3.34,-2.29 -1.13,-0.74 -2.28,-1.46 -3.44,-2.15 -1.16,-0.69 -2.34,-1.36 -3.52,-2 -1.19,-0.64 -2.39,-1.26 -3.61,-1.85 -0.78,-0.16 -1.57,-0.31 -2.36,-0.44 -0.8,-0.13 -1.59,-0.25 -2.39,-0.36 -0.79,-0.1 -1.59,-0.19 -2.39,-0.27 -0.8,-0.08 -1.6,-0.14 -2.4,-0.19 -1.46,-0.63 -2.93,-1.15 -4.39,-1.75 -13.86,-10.72 -30.88,-12.03 -48.97,-13.68 -4.57,-0.78 -9.17,-1.43 -13.78,-1.95 -4.61,-0.52 -9.24,-0.91 -13.87,-1.17 -4.63,-0.27 -9.27,-0.4 -13.91,-0.4 -4.64,0 -9.28,0.13 -13.92,0.38 -14.77,1.1 -21.23,-1.54 -32.15,-1.43"
       id="path2" />
    <path
       d="m 713.41,533.93 a 239.4,239.4 0 0 0 4.73,-11.21 c 1.47,-3.78 2.85,-7.6 4.14,-11.44 a 239.152,239.152 0 0 0 6.48,-23.45 c -2.35,17.2 -4.26,33.44 -15.35,46.1 z M 360.1,632.36 c -0.85,-1.51 -1.72,-3.02 -2.63,-4.51 -0.9,-1.49 -1.83,-2.96 -2.79,-4.41 -0.96,-1.46 -1.94,-2.89 -2.95,-4.31 -1.01,-1.42 -2.04,-2.83 -3.1,-4.21 6.93,6.62 14.3,12.77 22.05,18.41 7.76,5.63 15.88,10.74 24.32,15.28 8.44,4.55 17.18,8.52 26.15,11.9 8.97,3.37 18.16,6.14 27.5,8.28 v 0.32 c -15.4,-2.62 -33.25,-9.86 -48.81,-17.84 -15.55,-7.97 -29.2,-16.32 -39.74,-18.91 z M 692.81,572.5 c 0.01,-0.2 0.03,-0.4 0.05,-0.61 l 0.06,-0.61 c 0.03,-0.2 0.05,-0.4 0.08,-0.6 0.03,-0.2 0.06,-0.41 0.1,-0.61 a 7.354,7.354 0 0 1 -0.18,1.98 c -0.05,0.22 -0.12,0.43 -0.19,0.64 m -428.55,33.86 -2.43,-4 a 310.562,310.562 0 0 0 10.63,14.41 c 1.83,2.35 3.7,4.67 5.61,6.97 1.9,2.3 3.83,4.57 5.8,6.81 -1.84,-1.84 -3.63,-3.72 -5.37,-5.65 -1.74,-1.93 -3.43,-3.91 -5.06,-5.93 a 148.97,148.97 0 0 1 -4.75,-6.18 156,156 0 0 1 -4.43,-6.43 M 225.59,485.89 c -0.75,-6 -1.3,-12.02 -1.64,-18.05 -0.35,-6.04 -0.49,-12.08 -0.43,-18.13 0.07,-6.04 0.33,-12.08 0.81,-18.11 0.47,-6.03 1.14,-12.04 2.02,-18.02 1.43,-7.4 3.24,-14.72 5.44,-21.93 2.19,-7.21 4.77,-14.3 7.72,-21.24 2.94,-6.94 6.26,-13.71 9.92,-20.3 3.66,-6.59 7.67,-12.98 12.01,-19.14 a 271.195,271.195 0 0 0 -17.51,36.3 271.298,271.298 0 0 0 -11.97,38.49 c -3.03,13.1 -5.09,26.42 -6.15,39.83 a 272.42,272.42 0 0 0 -0.22,40.3 m 86.99,89.15 c -0.81,-1.85 -1.58,-3.71 -2.32,-5.58 -0.74,-1.87 -1.45,-3.76 -2.13,-5.65 -0.68,-1.9 -1.32,-3.81 -1.93,-5.73 -0.61,-1.92 -1.19,-3.85 -1.73,-5.79 0.81,1.79 1.64,3.58 2.51,5.35 0.86,1.77 1.75,3.53 2.66,5.27 0.91,1.75 1.85,3.48 2.82,5.19 0.96,1.72 1.95,3.42 2.96,5.11 -1.62,-0.73 -2.09,1.05 -2.84,1.73 m 21.62,101.83 -5.81,-4.32 c 5.44,3.09 10.96,5.99 16.58,8.61 -2.22,-0.68 -7.17,-2.88 -10.77,-4.29 M 288.6,494.39 c 0.63,5.72 1.5,11.41 2.62,17.08 -1.44,-3.19 -2.96,-6.31 -4.76,-9.44 0.27,-0.61 0.51,-1.22 0.73,-1.85 0.22,-0.62 0.42,-1.25 0.59,-1.89 0.17,-0.64 0.31,-1.29 0.43,-1.94 0.12,-0.65 0.22,-1.3 0.29,-1.96 m 3.11,-88.36 c 0.49,-1.85 1.01,-3.68 1.57,-5.5 0.56,-1.82 1.16,-3.63 1.79,-5.43 0.63,-1.79 1.29,-3.58 1.99,-5.35 0.7,-1.77 1.44,-3.53 2.2,-5.27 -0.72,2.17 -1.41,4.35 -2.07,6.55 -0.66,2.19 -1.29,4.39 -1.88,6.6 -0.6,2.21 -1.16,4.43 -1.69,6.66 -0.53,2.23 -1.03,4.46 -1.49,6.7 -0.5,-2.24 -0.95,-4.08 -0.42,-4.96"
       id="path3" />
  </g>
  <g
     fill="#189ab6"
     id="g6"
     transform="translate(-34.182976,-42.414439)">
    <path
       d="m 360.92,44.46 c 5.85,2.55 11.6,5.35 17.22,8.39 5.62,3.03 11.11,6.31 16.45,9.81 5.34,3.51 10.53,7.24 15.56,11.18 5.03,3.95 9.88,8.1 14.56,12.46 4.48,4.2 8.8,8.56 12.96,13.07 4.16,4.52 8.15,9.19 11.96,14 3.81,4.81 7.44,9.77 10.89,14.85 3.44,5.08 6.7,10.29 9.75,15.61 -2.36,-4.06 -4.83,-8.05 -7.42,-11.97 -2.59,-3.92 -5.3,-7.76 -8.11,-11.52 -2.81,-3.76 -5.73,-7.44 -8.76,-11.03 -3.02,-3.59 -6.15,-7.1 -9.38,-10.51 2.3,2.43 4.53,4.92 6.7,7.46 2.17,2.55 4.27,5.15 6.3,7.8 2.04,2.65 4,5.36 5.9,8.11 1.89,2.75 3.72,5.56 5.47,8.4 1.75,2.88 3.44,5.8 5.04,8.76 1.61,2.97 3.15,5.97 4.6,9.01 1.46,3.03 2.84,6.11 4.15,9.22 1.3,3.11 2.53,6.25 3.67,9.42 -0.8,-1.2 -1.58,-2.42 -2.35,-3.64 -0.77,-1.22 -1.52,-2.46 -2.25,-3.7 -0.73,-1.25 -1.44,-2.5 -2.13,-3.77 -0.7,-1.26 -1.37,-2.54 -2.03,-3.83 -3.06,-5.23 -6.25,-10.12 -8.68,-11.22 -4.34,-7.2 -9.02,-14.2 -14.02,-20.96 A 269.16,269.16 0 0 0 431.01,100.32 265.564,265.564 0 0 0 393.88,66.24 245.54,245.54 0 0 0 372.93,52.02 c -7.22,-4.39 -14.66,-8.39 -22.3,-12.01 -7.63,-3.62 -15.44,-6.85 -23.4,-9.67 -7.97,-2.82 -16.07,-5.23 -24.28,-7.22 2.88,-0.18 5.77,-0.16 8.65,0.06 2.87,0.23 5.73,0.66 8.55,1.29 2.81,0.62 5.58,1.45 8.28,2.47 a 61.26,61.26 0 0 1 7.86,3.6 c 8.91,4.66 16.13,10.18 24.63,14.02 m 133.2,195.56 c -0.76,-6.72 -1.73,-13.07 -2.9,-19.59 0.39,1.61 0.75,3.22 1.07,4.84 0.32,1.63 0.6,3.25 0.84,4.89 0.24,1.63 0.45,3.27 0.61,4.92 0.17,1.64 0.29,3.29 0.38,4.94 M 45.96,233.01 c -0.57,6.9 -0.86,13.83 -1.07,20.53 -0.07,-1.72 -0.11,-3.43 -0.1,-5.15 a 110.237,110.237 0 0 1 1.17,-15.38 M 273.39,38.39 261.78,39.2 c -7.43,-0.33 -14.87,-0.3 -22.3,0.08 -7.43,0.39 -14.83,1.13 -22.19,2.23 -7.36,1.09 -14.65,2.54 -21.87,4.34 -7.22,1.8 -14.34,3.94 -21.35,6.43 3.95,-1.51 7.93,-2.92 11.95,-4.24 4.02,-1.32 8.07,-2.54 12.14,-3.67 4.08,-1.12 8.18,-2.15 12.31,-3.09 4.12,-0.93 8.27,-1.76 12.43,-2.5 4.16,-0.74 8.36,-1.3 12.57,-1.69 4.21,-0.39 8.43,-0.6 12.66,-0.63 4.23,-0.03 8.45,0.12 12.67,0.45 4.21,0.32 8.41,0.83 12.59,1.51 m 30.03,10.64 a 166.85,166.85 0 0 1 40.54,13.69 c 6.43,3.14 12.65,6.69 18.62,10.63 5.97,3.93 11.69,8.25 17.11,12.92 -5.53,-4.52 -11.31,-8.71 -17.32,-12.56 A 186.3,186.3 0 0 0 343.71,63.27 c -6.41,-3.13 -13,-5.89 -19.73,-8.26 -6.73,-2.37 -13.6,-4.35 -20.56,-5.92 m -163.81,348.1 c 0.31,-0.5 0.94,-0.53 1.67,-0.37 0.15,0.08 0.29,0.16 0.45,0.23 0.15,0.07 0.3,0.13 0.46,0.18 a 4.21,4.21 0 0 0 0.97,0.24 c 1.68,1.69 3.39,3.34 5.13,4.96 1.73,1.62 3.5,3.21 5.3,4.77 1.8,1.55 3.62,3.07 5.47,4.56 1.86,1.49 3.74,2.94 5.65,4.36 a 49.458,49.458 0 0 1 -3.41,-1.2 c -0.56,-0.22 -1.11,-0.44 -1.67,-0.68 -0.55,-0.24 -1.1,-0.48 -1.64,-0.74 -0.77,-0.63 -1.53,-1.29 -2.27,-1.96 -0.74,-0.67 -1.46,-1.36 -2.17,-2.06 a 60.71,60.71 0 0 1 -2.09,-2.16 70.97,70.97 0 0 1 -2,-2.24 c -0.73,-0.76 -1.49,-1.5 -2.27,-2.21 -0.78,-0.71 -1.59,-1.4 -2.42,-2.05 -0.83,-0.66 -1.69,-1.28 -2.56,-1.88 -0.87,-0.6 -1.77,-1.17 -2.68,-1.7 M 47.06,225.35 46.88,224.59 c 0.31,-2.36 0.57,-4.71 0.96,-7.01 l 0.34,-0.81 c -0.34,2.87 -0.7,5.73 -1.12,8.58 z m 83.92,163.26 c 0.19,-0.21 0.36,-0.43 0.52,-0.66 a 5.821,5.821 0 0 0 0.7,-1.51 c 0.07,-0.26 0.13,-0.54 0.17,-0.81 3.39,4.05 6.95,7.84 10.71,11.77 -0.14,-0.06 -0.29,-0.12 -0.44,-0.17 -0.15,-0.06 -0.3,-0.11 -0.45,-0.16 -0.15,-0.04 -0.3,-0.09 -0.45,-0.13 l -0.46,-0.12 c -3.21,-1.73 -6.48,-6.38 -10.3,-8.21 M 89.05,279.27 c -0.18,-0.67 -0.38,-1.34 -0.62,-2 -0.23,-0.66 -0.49,-1.3 -0.77,-1.94 -0.29,-0.63 -0.6,-1.26 -0.94,-1.86 -0.34,-0.61 -0.71,-1.21 -1.1,-1.78 1.07,-8.66 2.62,-17.13 4.65,-26.86 -0.41,-1.62 0,-4.84 -0.73,-8.06 0.3,-0.42 0.6,-0.84 0.89,-1.27 0.29,-0.43 0.57,-0.86 0.85,-1.3 0.28,-0.43 0.56,-0.87 0.82,-1.32 0.27,-0.44 0.53,-0.89 0.79,-1.34 -1.12,5.47 -1.99,10.99 -2.59,16.54 -0.61,5.55 -0.95,11.12 -1.04,16.71 -0.08,5.58 0.09,11.16 0.53,16.73 0.43,5.56 1.13,11.1 2.08,16.61 -0.37,-1.56 -0.71,-3.12 -1.02,-4.69 -0.3,-1.57 -0.57,-3.14 -0.81,-4.72 -0.23,-1.58 -0.43,-3.16 -0.6,-4.75 -0.17,-1.59 -0.3,-3.18 -0.39,-4.78"
       id="path4" />
    <path
       d="m 457.67,248.86 c 0.44,4.53 0.68,9.07 0.72,13.63 0.04,4.55 -0.11,9.1 -0.45,13.64 -0.35,4.53 -0.89,9.06 -1.62,13.55 -0.74,4.49 -1.66,8.95 -2.78,13.36 -4.18,18.07 -10.3,35.23 -15.32,51.75 10.85,-16.97 19.53,-39.75 24.42,-59.23 4.89,-19.48 7.22,-35.56 11.97,-38.91 4.76,-3.35 6.1,11.69 2.91,31.59 -0.44,2.65 -0.92,5.29 -1.46,7.91 -0.54,2.63 -1.13,5.25 -1.77,7.85 -0.64,2.61 -1.34,5.2 -2.08,7.78 -0.74,2.58 -1.54,5.14 -2.38,7.68 -3.35,10.47 -7.27,20.01 -10.46,27.86 2.62,-3.74 2.62,-3.74 5.23,-7.61 -0.67,0.86 -1.3,1.75 -1.88,2.68 -0.59,0.93 -1.12,1.88 -1.59,2.87 -0.48,0.98 -0.91,1.99 -1.28,3.02 -0.37,1.03 -0.69,2.08 -0.95,3.14 0.85,-1.2 1.67,-2.42 2.48,-3.64 0.81,-1.23 1.6,-2.47 2.38,-3.72 0.77,-1.25 1.53,-2.51 2.27,-3.78 0.73,-1.27 1.45,-2.55 2.15,-3.84 0.56,-1.13 1.16,-2.24 1.78,-3.33 0.62,-1.09 1.27,-2.17 1.95,-3.23 0.68,-1.05 1.39,-2.09 2.13,-3.11 0.74,-1.02 1.51,-2.01 2.3,-2.99 0,2.85 0,5.73 -0.16,8.63 7.14,-10.28 13.47,-26.99 17.44,-44.46 3.97,-17.47 5.8,-35.56 8.13,-48.61 -0.65,8.26 -1.6,16.5 -2.86,24.69 -1.26,8.19 -2.83,16.34 -4.69,24.41 -1.87,8.08 -4.03,16.08 -6.49,24 -2.46,7.92 -5.22,15.74 -8.26,23.45 -3.29,8.27 -6.98,16.37 -11.07,24.28 -4.1,7.9 -8.58,15.6 -13.43,23.06 a 269.816,269.816 0 0 1 -33.36,41.57 242.489,242.489 0 0 1 -43.1,34.85 242.949,242.949 0 0 1 -49.89,24.15 c -8.7,3.04 -17.57,5.55 -26.58,7.52 a 229.344,229.344 0 0 1 -54.89,5.27 c -9.21,-0.22 -18.4,-1 -27.52,-2.33 -19.51,-2.4 -38.7,-6.94 -57.22,-13.54 A 268.066,268.066 0 0 1 109.5,455.04 268.081,268.081 0 0 1 26.54,372.68 152.386,152.386 0 0 1 19.29,357.66 c -1.08,-2.57 -2.08,-5.16 -3.02,-7.78 -0.93,-2.62 -1.8,-5.26 -2.6,-7.93 -1.01,-3.27 -1.95,-6.56 -2.82,-9.88 -0.86,-3.32 -1.65,-6.65 -2.37,-10 C 7.77,318.71 7.13,315.35 6.57,311.96 6.01,308.58 5.53,305.19 5.12,301.79 A 285.679,285.679 0 0 1 1.1,268.67 C 0.4,257.57 0.36,246.43 0.97,235.31 a 286.03,286.03 0 0 1 3.77,-33.14 c 1.91,-10.96 4.45,-21.81 7.63,-32.47 a 236.6,236.6 0 0 1 13.97,-32.89 238.992,238.992 0 0 1 18.72,-30.42 c 7,-9.66 14.71,-18.78 23.07,-27.29 8.36,-8.5 17.34,-16.37 26.88,-23.53 9.84,-7.39 20.16,-14.11 30.9,-20.11 a 273.45,273.45 0 0 1 33.32,-15.8 c 11.44,-4.51 23.18,-8.26 35.13,-11.2 11.94,-2.94 24.07,-5.08 36.31,-6.39 10.09,-1.23 22.22,0.75 25.38,3.5 1.62,1.33 1.05,2.77 -2.93,4.11 -1.89,0.5 -3.79,0.97 -5.7,1.42 -1.91,0.44 -3.83,0.85 -5.75,1.23 -1.92,0.38 -3.85,0.74 -5.79,1.06 -1.93,0.32 -3.87,0.6 -5.81,0.86 a 296.698,296.698 0 0 0 -56.75,16.76 c -9.14,3.73 -18.1,7.91 -26.83,12.54 -8.73,4.62 -17.22,9.68 -25.44,15.16 1.07,-2.62 5.8,-6.04 11.24,-9.44 1.29,-0.74 2.58,-1.5 3.85,-2.28 1.27,-0.77 2.53,-1.57 3.79,-2.38 1.25,-0.81 2.49,-1.64 3.72,-2.48 1.22,-0.85 2.44,-1.71 3.64,-2.59 -3.22,1.34 -6.4,2.76 -9.55,4.26 -3.15,1.5 -6.26,3.08 -9.32,4.74 -3.07,1.66 -6.1,3.39 -9.08,5.2 -2.98,1.81 -5.92,3.69 -8.8,5.65 -2.86,1.95 -5.67,3.97 -8.42,6.06 -2.76,2.09 -5.46,4.25 -8.1,6.47 -2.65,2.23 -5.24,4.52 -7.77,6.88 -2.53,2.36 -4.99,4.78 -7.4,7.26 3.39,-3.5 6.87,-6.91 10.46,-10.22 3.58,-3.3 7.26,-6.5 11.03,-9.6 3.77,-3.09 7.63,-6.07 11.57,-8.94 3.94,-2.87 7.96,-5.63 12.06,-8.27 A 256.55,256.55 0 0 0 93.51,71.76 254.33,254.33 0 0 0 66.72,98.72 c -4.3,5.04 -8.38,10.26 -12.23,15.65 -3.86,5.39 -7.48,10.93 -10.86,16.63 -3.38,5.69 -6.52,11.53 -9.41,17.49 -2.89,5.96 -5.52,12.04 -7.89,18.22 -3.61,8.97 -8.87,16.74 -13.21,26.16 -1.29,2.68 -2.4,5.46 -3.32,8.3 -0.92,2.84 -1.64,5.74 -2.16,8.67 -0.52,2.94 -0.83,5.91 -0.94,8.9 -0.11,2.98 -0.02,5.96 0.28,8.93 a 255.81,255.81 0 0 1 15.09,-50.11 c 3.37,-8.07 7.14,-15.96 11.32,-23.64 4.17,-7.68 8.73,-15.14 13.67,-22.35 a 273.207,273.207 0 0 1 33.5,-40.06 c 6.2,-6.12 12.7,-11.94 19.47,-17.43 6.76,-5.5 13.78,-10.67 21.04,-15.5 -0.02,0.03 -0.04,0.06 -0.05,0.09 -0.02,0.03 -0.04,0.06 -0.05,0.09 -0.02,0.03 -0.03,0.06 -0.04,0.09 a 0.3,0.3 0 0 0 -0.04,0.1 c 6.14,-4.18 12.48,-8.06 18.98,-11.64 6.5,-3.58 13.17,-6.85 19.98,-9.81 6.81,-2.95 13.76,-5.59 20.81,-7.9 7.06,-2.31 14.22,-4.29 21.46,-5.93 -9,2.61 -17.88,5.7 -25.78,7.84 10.26,-2.97 20.68,-5.33 31.21,-7.07 10.54,-1.74 21.17,-2.85 31.84,-3.33 10.66,-0.47 21.35,-0.32 32,0.47 10.65,0.79 21.24,2.21 31.72,4.26 -7.51,-0.8 -15.05,-1.3 -22.59,-1.5 -7.55,-0.2 -15.11,-0.1 -22.65,0.31 -7.54,0.4 -15.06,1.11 -22.54,2.11 -7.49,1.01 -14.93,2.32 -22.31,3.92 -7.5,1.63 -14.93,3.6 -22.26,5.9 -7.32,2.31 -14.54,4.94 -21.63,7.9 -7.08,2.97 -14.03,6.25 -20.82,9.84 -6.78,3.59 -13.41,7.49 -19.84,11.69 -6.43,4.2 -12.66,8.72 -18.66,13.53 A 238.03,238.03 0 0 0 92.56,94.82 c -5.51,5.37 -10.74,11 -15.7,16.88 -4.95,5.88 -9.62,11.99 -13.98,18.32 -4.26,6.2 -8.2,12.6 -11.79,19.2 -3.6,6.6 -6.86,13.38 -9.75,20.31 a 218.385,218.385 0 0 0 -13,43.08 c 5.96,-15.69 11.45,-33.68 19.24,-50.58 7.79,-16.89 17.6,-32.29 28.76,-41.45 a 241.215,241.215 0 0 0 -22.15,33.47 239.836,239.836 0 0 0 -29.43,115.6 l -1.34,-12.03 c -0.49,4.35 -0.8,8.73 -0.94,13.11 -0.13,4.39 -0.07,8.78 0.16,13.15 0.23,4.38 0.65,8.75 1.25,13.1 0.6,4.34 1.37,8.66 2.33,12.94 0.96,4.28 2.01,8.54 3.17,12.78 1.16,4.23 2.42,8.44 3.78,12.61 1.36,4.17 2.82,8.31 4.37,12.42 1.56,4.1 3.22,8.17 4.97,12.19 1.18,2.85 2.35,5.68 3.66,8.47 l -3.66,-8.47 c -2.91,-7.14 -5.48,-14.43 -7.69,-21.82 -2.22,-7.39 -4.07,-14.89 -5.56,-22.46 -1.49,-7.57 -2.61,-15.21 -3.36,-22.89 -0.75,-7.68 -1.13,-15.39 -1.14,-23.1 1.57,13.8 3.08,28.32 6.3,45.58 0,-9.68 -1.49,-23.17 -1.44,-36.61 -0.26,-4.4 -0.39,-8.8 -0.39,-13.21 0,-4.4 0.14,-8.8 0.41,-13.2 0.27,-4.4 0.67,-8.78 1.2,-13.15 0.53,-4.37 1.2,-8.73 2,-13.06 -1.01,6.4 -1.67,12.86 -1.99,19.33 -0.32,6.47 -0.29,12.96 0.09,19.43 0.38,6.47 1.1,12.92 2.17,19.31 1.07,6.4 2.48,12.73 4.22,18.97 -4.34,-35.67 -1.72,-73.22 10.46,-106.91 -1.4,4.67 -2.65,9.38 -3.74,14.12 -1.08,4.75 -2.01,9.53 -2.78,14.34 -0.77,4.81 -1.37,9.65 -1.81,14.5 -0.45,4.85 -0.73,9.71 -0.85,14.58 -0.62,8.26 -0.77,16.55 -0.44,24.83 0.33,8.28 1.13,16.53 2.41,24.71 1.28,8.19 3.03,16.3 5.23,24.28 2.21,7.98 4.88,15.84 7.99,23.51 l -1.51,-3.5 c 0.96,2.35 2.06,4.68 3.13,7.03 1.32,3.04 2.7,6.06 4.15,9.03 1.45,2.98 2.97,5.92 4.55,8.83 a 215.728,215.728 0 0 0 10.31,16.98 c 1.73,2.38 3.54,4.7 5.42,6.95 1.89,2.26 3.86,4.45 5.89,6.57 2.04,2.12 4.16,4.16 6.34,6.14 2.18,1.97 4.43,3.86 6.74,5.68 l 4.11,4.1 c -3.22,-1.96 -5.23,-2.61 -0.5,2.88 2.67,2.99 5.45,5.87 8.35,8.63 2.9,2.77 5.91,5.41 9.03,7.93 3.12,2.51 6.34,4.9 9.65,7.15 3.31,2.25 6.71,4.37 10.2,6.34 14.27,8.52 29.7,15.69 45.83,23.32 2.71,1.14 5.47,2.17 8.26,3.09 2.79,0.92 5.62,1.73 8.48,2.44 2.85,0.7 5.73,1.3 8.63,1.78 2.9,0.48 5.82,0.86 8.75,1.12 0.56,0.26 1.15,0.48 1.76,0.64 0.6,0.16 1.22,0.27 1.84,0.33 0.62,0.06 1.25,0.06 1.87,0 0.63,-0.05 1.24,-0.16 1.85,-0.32 2.9,0.23 5.85,0.39 8.78,0.52 1.78,0.18 3.55,0.31 5.33,0.41 1.78,0.09 3.57,0.15 5.35,0.16 1.78,0.02 3.56,-0.01 5.34,-0.07 1.79,-0.07 3.57,-0.17 5.34,-0.31 -6.95,0 -14.17,0 -21.36,-0.19 l -8,-0.7 c 0.63,-0.23 1.26,-0.42 1.91,-0.58 0.65,-0.15 1.3,-0.27 1.96,-0.35 0.66,-0.08 1.32,-0.13 1.99,-0.13 0.66,-0.01 1.32,0.02 1.99,0.09 -6.17,-0.7 -12.31,-1.66 -18.4,-2.89 -6.08,-1.22 -12.12,-2.7 -18.08,-4.43 -5.96,-1.73 -11.85,-3.71 -17.64,-5.95 -5.79,-2.23 -11.49,-4.7 -17.07,-7.42 -5.69,-2.76 -11.25,-5.75 -16.69,-8.96 -5.44,-3.21 -10.75,-6.64 -15.91,-10.28 -5.17,-3.64 -10.18,-7.49 -15.03,-11.53 -4.85,-4.05 -9.54,-8.29 -14.05,-12.72 2.62,1.6 6.36,4 8.03,4.79 -4.16,-2.77 -8.16,-5.78 -12.13,-8.89 -2.87,-2.95 -5.66,-5.97 -8.38,-9.06 -2.71,-3.09 -5.35,-6.25 -7.9,-9.47 A 243.77,243.77 0 0 1 67.97,376.11 c 0.68,0.91 1.38,1.81 2.11,2.69 0.73,0.87 1.48,1.73 2.25,2.57 0.78,0.83 1.58,1.64 2.4,2.43 0.82,0.79 1.66,1.56 2.52,2.3 -3.23,-4.84 -6.27,-9.81 -9.13,-14.88 -2.86,-5.07 -5.53,-10.25 -8,-15.52 -2.47,-5.27 -4.74,-10.64 -6.8,-16.08 a 228.11,228.11 0 0 1 -5.58,-16.55 c -1.65,-5.62 -3.08,-11.3 -4.29,-17.03 -1.21,-5.73 -2.19,-11.51 -2.96,-17.32 -0.76,-5.8 -1.3,-11.64 -1.61,-17.49 -0.32,-5.85 -0.4,-11.71 -0.27,-17.56 0.83,-10.84 2.46,-21.6 4.89,-32.19 2.42,-10.59 5.62,-20.99 9.58,-31.11 3.97,-10.12 8.67,-19.93 14.09,-29.35 5.41,-9.42 11.52,-18.43 18.27,-26.94 -4.18,4.42 -8.12,9.05 -11.81,13.89 -3.69,4.84 -7.13,9.86 -10.29,15.06 -3.15,5.2 -6.04,10.56 -8.63,16.06 -2.59,5.51 -4.89,11.14 -6.89,16.89 2.41,-8.04 5.3,-15.93 8.64,-23.63 3.35,-7.7 7.15,-15.19 11.38,-22.44 4.23,-7.25 8.89,-14.24 13.95,-20.94 5.06,-6.69 10.51,-13.08 16.33,-19.13 5.79,-6.04 11.96,-11.71 18.45,-16.99 6.5,-5.27 13.32,-10.13 20.42,-14.56 7.1,-4.42 14.47,-8.4 22.07,-11.91 7.59,-3.51 15.4,-6.54 23.37,-9.08 -10.14,7.22 -23.53,16.53 -27.53,24.06 1.41,1.41 19.69,-6.85 9.83,-0.47 -17.44,12.29 -31.5,23.27 -41.83,33.99 -10.32,10.72 -16.63,20.92 -16.76,30.97 0.37,2.19 9.65,-3.67 18.3,-7.3 8.66,-3.64 16,-5.6 12.08,-0.26 -2.8,3.22 -5.51,6.52 -8.12,9.9 -2.61,3.38 -5.12,6.84 -7.52,10.37 -2.4,3.53 -4.7,7.13 -6.89,10.8 -2.18,3.66 -4.26,7.4 -6.23,11.19 -0.82,1.32 -1.61,2.65 -2.39,3.99 -0.77,1.35 -1.52,2.71 -2.24,4.09 a 124.259,124.259 0 0 0 -4.02,8.39 c -0.11,0.32 -0.21,0.65 -0.28,0.99 -0.07,0.33 -0.12,0.67 -0.14,1.01 -0.03,0.34 -0.03,0.68 0,1.02 0.02,0.34 0.06,0.68 0.13,1.01 a 218.89,218.89 0 0 0 -4.2,13.17 c -1.27,4.43 -2.39,8.91 -3.37,13.41 a 216.523,216.523 0 0 0 -4.19,27.32 c -0.52,4.37 -0.79,8.71 -0.92,13.07 -0.13,0.52 -0.27,1.04 -0.44,1.55 -0.17,0.5 -0.35,1 -0.56,1.5 -0.2,0.49 -0.42,0.98 -0.66,1.46 -0.24,0.48 -0.49,0.95 -0.77,1.41 1.02,2.74 1.88,5.46 2.62,8.15 0.16,2.91 0.39,5.8 0.71,8.69 0.32,2.89 0.72,5.77 1.19,8.64 0.48,2.87 1.03,5.72 1.67,8.56 0.63,2.83 1.34,5.65 2.13,8.45 0.22,1.63 0.46,3.25 0.74,4.87 0.28,1.62 0.58,3.23 0.91,4.84 0.33,1.6 0.69,3.21 1.08,4.8 0.39,1.6 0.8,3.18 1.24,4.76 0.65,-0.44 1.18,-1.83 2.35,-1.02 1.41,3.36 2.92,6.67 4.54,9.92 1.63,3.26 3.35,6.46 5.19,9.61 1.83,3.14 3.76,6.22 5.79,9.24 2.04,3.01 4.17,5.96 6.39,8.84 0.7,1.23 1.38,2.47 2.04,3.72 0.66,1.25 1.29,2.51 1.9,3.79 0.62,1.27 1.21,2.56 1.77,3.85 0.57,1.29 1.12,2.6 1.64,3.91 8.05,3.45 17.91,11.95 29.62,20.14 2.84,2.11 5.76,4.11 8.75,6.02 2.98,1.9 6.04,3.69 9.15,5.38 3.11,1.69 6.28,3.26 9.51,4.72 3.22,1.46 6.5,2.81 9.82,4.04 v -0.21 c 2.99,1.17 6.02,2.27 9.08,3.28 3.05,1.01 6.13,1.94 9.24,2.78 a 177.712,177.712 0 0 0 18.85,4.09 c 0.5,0.23 1,0.47 1.49,0.71 0.49,0.25 0.98,0.5 1.46,0.76 0.49,0.26 0.97,0.53 1.44,0.8 0.48,0.27 0.95,0.55 1.42,0.84 3.37,-0.78 6.74,-0.57 8.42,-1.07 10.45,1.57 19.26,2.8 28.41,3.45 0.6,-0.43 1.21,-0.83 1.83,-1.21 a 25.39,25.39 0 0 1 3.94,-1.91 c 0.68,-0.26 1.38,-0.5 2.08,-0.7 a 118.594,118.594 0 0 0 9.92,-1.51 c 1.64,-0.32 3.28,-0.67 4.91,-1.06 1.62,-0.39 3.24,-0.81 4.85,-1.27 1.89,-0.43 3.76,-0.88 5.63,-1.35 1.87,-0.48 3.74,-0.99 5.59,-1.52 1.86,-0.53 3.7,-1.09 5.54,-1.68 1.84,-0.58 3.67,-1.19 5.49,-1.83 6.22,-2.18 12.33,-4.68 18.29,-7.48 a 194.236,194.236 0 0 0 33.83,-20.35 c 5.27,-3.96 10.34,-8.18 15.18,-12.65 0.28,0.02 0.56,0.05 0.83,0.11 0.28,0.06 0.55,0.14 0.82,0.24 0.26,0.1 0.52,0.21 0.77,0.34 0.25,0.14 0.49,0.29 0.71,0.46 1.78,-4.01 6.44,-7.67 8.11,-11.12 -0.16,0.79 0,1.41 0.44,1.68 0.54,-0.98 1.1,-1.94 1.7,-2.88 0.6,-0.93 1.22,-1.85 1.88,-2.75 0.65,-0.9 1.34,-1.78 2.05,-2.63 0.71,-0.86 1.45,-1.69 2.22,-2.49 0.75,-0.73 1.49,-1.46 2.22,-2.22 0.73,-0.75 1.44,-1.52 2.13,-2.3 0.69,-0.79 1.37,-1.58 2.03,-2.4 0.66,-0.81 1.3,-1.63 1.93,-2.47 0.25,-0.57 0.48,-1.15 0.7,-1.73 0.23,-0.58 0.44,-1.16 0.64,-1.75 0.19,-0.59 0.38,-1.18 0.55,-1.78 0.18,-0.6 0.34,-1.2 0.49,-1.8 0.7,-1.02 1.36,-2.07 2.01,-3.09 10.2,-8.97 13.73,-21.73 17.65,-35.28 1.27,-3.37 2.45,-6.78 3.54,-10.21 1.08,-3.44 2.07,-6.91 2.95,-10.41 0.89,-3.49 1.68,-7.01 2.36,-10.55 0.69,-3.54 1.28,-7.1 1.76,-10.67 1.34,-11.4 4.32,-15.92 5.86,-24.27"
       id="path5" />
    <path
       d="m 167.61,418.13 c 2.57,1.83 5.18,3.59 7.84,5.28 2.66,1.69 5.36,3.31 8.1,4.87 2.74,1.55 5.52,3.03 8.34,4.44 2.82,1.41 5.67,2.74 8.55,4.01 -12.75,-4.34 -24.83,-8.19 -32.83,-18.52 M 145.02,134.44 c 1.28,-0.41 2.56,-0.85 3.82,-1.32 1.27,-0.46 2.53,-0.95 3.77,-1.47 1.25,-0.51 2.49,-1.04 3.72,-1.6 1.22,-0.56 2.44,-1.15 3.64,-1.75 -6.06,4.3 -11.83,9 -17.27,14.07 -5.44,5.07 -10.53,10.5 -15.24,16.26 -4.71,5.75 -9.03,11.82 -12.92,18.15 -3.9,6.34 -7.37,12.92 -10.38,19.72 h -0.24 c 1.33,-3.1 2.76,-6.16 4.3,-9.16 1.54,-3.01 3.18,-5.96 4.93,-8.84 1.75,-2.89 3.6,-5.71 5.55,-8.47 1.95,-2.75 4,-5.44 6.14,-8.05 8.28,-10.83 16.75,-19.85 20.28,-27.48 m -3.94,262.32 0.45,0.12 c 0.15,0.04 0.31,0.08 0.46,0.13 0.15,0.05 0.3,0.09 0.45,0.14 0.14,0.05 0.29,0.11 0.44,0.16 -0.16,-0.03 -0.33,-0.06 -0.49,-0.1 -0.16,-0.04 -0.32,-0.09 -0.48,-0.14 a 6.015,6.015 0 0 1 -0.91,-0.41 m 37.75,-331.5 3.42,-1.25 a 239.712,239.712 0 0 0 -12.53,5.95 c -2.06,1.05 -4.1,2.13 -6.13,3.24 -2.03,1.11 -4.04,2.24 -6.04,3.41 1.67,-1.13 3.36,-2.21 5.09,-3.25 1.72,-1.04 3.48,-2.03 5.25,-2.98 1.78,-0.95 3.58,-1.85 5.4,-2.7 1.83,-0.86 3.67,-1.66 5.54,-2.42 m 97.57,-11.53 c 4.67,0.32 9.34,0.79 13.98,1.42 4.64,0.63 9.26,1.42 13.85,2.37 4.59,0.94 9.15,2.04 13.66,3.29 4.52,1.26 8.99,2.66 13.41,4.22 a 163.52,163.52 0 0 1 15.89,7.39 c 5.16,2.74 10.17,5.75 15.02,9.03 4.84,3.27 9.51,6.79 13.98,10.56 4.47,3.77 8.74,7.76 12.78,11.98 -7.87,-6.85 -16.24,-13.1 -25.04,-18.71 -8.79,-5.61 -18,-10.57 -27.52,-14.82 -9.53,-4.25 -19.36,-7.79 -29.41,-10.59 -10.06,-2.8 -20.3,-4.85 -30.65,-6.14 m -80.68,53.03 c 1.52,-0.33 3.05,-0.64 4.59,-0.93 1.53,-0.28 3.07,-0.54 4.61,-0.77 a 147.896,147.896 0 0 1 9.31,-1.07 c -1.5,0.35 -2.98,0.72 -4.46,1.11 -1.49,0.4 -2.96,0.81 -4.43,1.25 -1.47,0.43 -2.93,0.89 -4.39,1.37 -1.45,0.48 -2.9,0.98 -4.34,1.5 0.81,-1.12 -0.5,-1.75 -0.89,-2.43 m -80.66,1.39 4.13,-3.8 c -3.13,3.72 -6.17,7.46 -9.02,11.35 0.87,-1.59 3.27,-5.02 4.89,-7.55 z m 145.6,-7.72 c -4.45,-0.37 -8.92,-0.52 -13.36,-0.44 2.61,-0.63 5.23,-1.34 7.84,-2.25 0.42,0.29 0.85,0.56 1.29,0.81 0.44,0.26 0.89,0.5 1.35,0.71 0.46,0.22 0.93,0.42 1.4,0.6 0.48,0.19 0.96,0.35 1.45,0.49 m 66.85,15.46 c 1.33,0.64 2.65,1.31 3.96,2.01 1.3,0.7 2.59,1.42 3.87,2.17 1.27,0.75 2.53,1.52 3.78,2.32 1.24,0.8 2.47,1.62 3.69,2.47 -1.55,-0.88 -3.11,-1.73 -4.68,-2.56 -1.57,-0.83 -3.16,-1.63 -4.75,-2.41 -1.6,-0.78 -3.21,-1.54 -4.82,-2.27 -1.62,-0.73 -3.25,-1.44 -4.89,-2.12 1.78,0 3.27,0 3.84,0.39"
       id="path6" />
  </g>
</svg>
